<svg xmlns="http://www.w3.org/2000/svg" version="1.1" xmlns:xlink="http://www.w3.org/1999/xlink" viewBox="0 0 200 200"><rect width="200" height="200" fill="url('#gradient')"></rect><defs><linearGradient id="gradient" gradientTransform="rotate(45 0.5 0.5)"><stop offset="0%" stop-color="#e1ce7a"></stop><stop offset="100%" stop-color="#ebcfb2"></stop></linearGradient></defs><g><g fill="#424b54" transform="matrix(2.3804726850058118,0,0,2.3804726850058118,7.445384101274627,117.62962642634206)" stroke="#c5baaf" stroke-width="0.2"><path d="M12.96-14.22L12.96 0L9.55 0L9.55-5.94L4.50-5.94L4.50 0L1.07 0L1.07-14.22L4.50-14.22L4.50-8.57L9.55-8.57L9.55-14.22L12.96-14.22ZM18.45-10.57L18.45 0L15.15 0L15.15-10.57L18.45-10.57ZM14.95-13.29L14.95-13.29Q14.95-13.99 15.46-14.44Q15.97-14.89 16.78-14.89Q17.59-14.89 18.10-14.44Q18.60-13.99 18.60-13.29Q18.60-12.59 18.10-12.14Q17.59-11.69 16.78-11.69Q15.97-11.69 15.46-12.14Q14.95-12.59 14.95-13.29ZM26.92-10.64L26.87-7.59L25.78-7.67Q24.23-7.67 23.79-6.69L23.79-6.69L23.79 0L20.50 0L20.50-10.57L23.58-10.57L23.69-9.21Q24.52-10.76 26.01-10.76L26.01-10.76Q26.53-10.76 26.92-10.64L26.92-10.64ZM32.98 0.20L32.98 0.20Q30.55 0.20 29.04-1.25Q27.54-2.71 27.54-5.03L27.54-5.03L27.54-5.30Q27.54-6.92 28.14-8.16Q28.74-9.40 29.89-10.08Q31.04-10.76 32.63-10.76L32.63-10.76Q34.85-10.76 36.14-9.38Q37.43-8.00 37.43-5.53L37.43-5.53L37.43-4.25L30.89-4.25Q31.06-3.36 31.66-2.85Q32.26-2.34 33.20-2.34L33.20-2.34Q34.77-2.34 35.64-3.44L35.64-3.44L37.15-1.66Q36.53-0.81 35.41-0.31Q34.28 0.20 32.98 0.20ZM32.61-8.22L32.61-8.22Q31.16-8.22 30.89-6.31L30.89-6.31L34.21-6.31L34.21-6.56Q34.23-7.35 33.81-7.79Q33.39-8.22 32.61-8.22ZM42.33-14.22L42.33-2.64L48.30-2.64L48.30 0L38.91 0L38.91-14.22L42.33-14.22ZM53.07-10.57L53.07 0L49.77 0L49.77-10.57L53.07-10.57ZM49.57-13.29L49.57-13.29Q49.57-13.99 50.08-14.44Q50.59-14.89 51.40-14.89Q52.21-14.89 52.71-14.44Q53.22-13.99 53.22-13.29Q53.22-12.59 52.71-12.14Q52.21-11.69 51.40-11.69Q50.59-11.69 50.08-12.14Q49.57-12.59 49.57-13.29ZM55.03-10.57L58.12-10.57L58.22-9.33Q59.32-10.76 61.24-10.76L61.24-10.76Q62.89-10.76 63.71-9.78Q64.52-8.79 64.55-6.81L64.55-6.81L64.55 0L61.25 0L61.25-6.67Q61.25-7.47 60.93-7.85Q60.61-8.22 59.76-8.22L59.76-8.22Q58.79-8.22 58.32-7.46L58.32-7.46L58.32 0L55.03 0L55.03-10.57ZM72.92 0L70.62-3.94L69.69-3.01L69.69 0L66.40 0L66.40-15.01L69.69-15.01L69.69-7.04L70.02-7.48L72.50-10.57L76.45-10.57L72.74-6.22L76.69 0L72.92 0Z"></path></g></g></svg>